<svg width="32" height="32" viewBox="0 0 32 32" fill="none" xmlns="http://www.w3.org/2000/svg">
<path d="M16 10.6666V5.33331H10.6667" stroke="#F59E0B" stroke-width="2.66667" stroke-linecap="round" stroke-linejoin="round"/>
<path d="M24 10.6667H8.00001C6.52725 10.6667 5.33334 11.8606 5.33334 13.3334V24C5.33334 25.4728 6.52725 26.6667 8.00001 26.6667H24C25.4728 26.6667 26.6667 25.4728 26.6667 24V13.3334C26.6667 11.8606 25.4728 10.6667 24 10.6667Z" stroke="#F59E0B" stroke-width="2.66667" stroke-linecap="round" stroke-linejoin="round"/>
<path d="M24 10.6666H8.00001C6.52725 10.6666 5.33334 11.8605 5.33334 13.3333V24C5.33334 25.4727 6.52725 26.6666 8.00001 26.6666H24C25.4728 26.6666 26.6667 25.4727 26.6667 24V13.3333C26.6667 11.8605 25.4728 10.6666 24 10.6666Z" stroke="#F59E0B" stroke-width="2.66667" stroke-linecap="round" stroke-linejoin="round"/>
<path d="M2.66666 18.6667H5.33332" stroke="#F59E0B" stroke-width="2.66667" stroke-linecap="round" stroke-linejoin="round"/>
<path d="M26.6667 18.6667H29.3333" stroke="#F59E0B" stroke-width="2.66667" stroke-linecap="round" stroke-linejoin="round"/>
<path d="M20 17.3333V20" stroke="#F59E0B" stroke-width="2.66667" stroke-linecap="round" stroke-linejoin="round"/>
<path d="M12 17V19.6667" stroke="#F59E0B" stroke-width="2.66667" stroke-linecap="round" stroke-linejoin="round"/>
</svg>
