<svg width="21" height="20" viewBox="0 0 21 20" fill="none" xmlns="http://www.w3.org/2000/svg">
<path d="M19.2199 10.2083C19.2199 9.55831 19.1616 8.93331 19.0533 8.33331H10.4199V11.8833H15.3533C15.1366 13.025 14.4866 13.9916 13.5116 14.6416V16.95H16.4866C18.2199 15.35 19.2199 13 19.2199 10.2083Z" fill="#4285F4"/>
<path d="M10.4199 19.1667C12.8949 19.1667 14.9699 18.35 16.4866 16.95L13.5116 14.6417C12.6949 15.1917 11.6532 15.525 10.4199 15.525C8.03657 15.525 6.01157 13.9167 5.28657 11.75H2.23657V14.1167C3.74491 17.1083 6.83657 19.1667 10.4199 19.1667Z" fill="#34A853"/>
<path d="M5.28651 11.7417C5.10317 11.1917 4.99484 10.6083 4.99484 10C4.99484 9.39166 5.10317 8.80833 5.28651 8.25833V5.89166H2.23651C1.61151 7.125 1.25317 8.51666 1.25317 10C1.25317 11.4833 1.61151 12.875 2.23651 14.1083L4.61151 12.2583L5.28651 11.7417Z" fill="#FBBC05"/>
<path d="M10.4199 4.48331C11.7699 4.48331 12.9699 4.94998 13.9282 5.84998L16.5532 3.22498C14.9616 1.74165 12.8949 0.833313 10.4199 0.833313C6.83657 0.833313 3.74491 2.89165 2.23657 5.89165L5.28657 8.25831C6.01157 6.09165 8.03657 4.48331 10.4199 4.48331Z" fill="#EA4335"/>
</svg>
