<svg width="22" height="22" viewBox="0 0 22 22" fill="none" xmlns="http://www.w3.org/2000/svg">
<path d="M13.303 5.55488C13.1111 5.75067 13.0036 6.01389 13.0036 6.28804C13.0036 6.5622 13.1111 6.82542 13.303 7.0212L14.9788 8.697C15.1746 8.88891 15.4378 8.9964 15.712 8.9964C15.9861 8.9964 16.2493 8.88891 16.4451 8.697L20.3937 4.74841C20.9204 5.91224 21.0798 7.20893 20.8508 8.46568C20.6219 9.72243 20.0153 10.8796 19.112 11.7828C18.2087 12.6861 17.0516 13.2927 15.7948 13.5217C14.5381 13.7507 13.2414 13.5912 12.0776 13.0645L4.84024 20.3019C4.42357 20.7185 3.85844 20.9526 3.26918 20.9526C2.67992 20.9526 2.11479 20.7185 1.69812 20.3019C1.28145 19.8852 1.04737 19.3201 1.04737 18.7308C1.04737 18.1416 1.28145 17.5764 1.69812 17.1598L8.93546 9.92242C8.40881 8.7586 8.24935 7.4619 8.47833 6.20515C8.70731 4.9484 9.31386 3.79127 10.2172 2.88798C11.1204 1.9847 12.2776 1.37814 13.5343 1.14916C14.7911 0.920176 16.0878 1.07964 17.2516 1.60629L13.3135 5.54441L13.303 5.55488Z" stroke="white" stroke-width="2" stroke-linecap="round" stroke-linejoin="round"/>
</svg>
