<svg width="36" height="36" viewBox="0 0 36 36" fill="none" xmlns="http://www.w3.org/2000/svg">
<rect width="36" height="36" rx="8" fill="#FEE2E2"/>
<path d="M26.1083 23L19.4417 11.3333C19.2963 11.0768 19.0855 10.8635 18.8308 10.715C18.576 10.5666 18.2865 10.4884 17.9917 10.4884C17.6968 10.4884 17.4073 10.5666 17.1526 10.715C16.8978 10.8635 16.687 11.0768 16.5417 11.3333L9.875 23C9.72807 23.2544 9.65103 23.5432 9.65168 23.8371C9.65233 24.1309 9.73065 24.4194 9.87871 24.6732C10.0268 24.927 10.2393 25.1371 10.4947 25.2823C10.7502 25.4275 11.0395 25.5026 11.3333 25.5H24.6667C24.9591 25.4997 25.2463 25.4225 25.4994 25.2761C25.7525 25.1297 25.9627 24.9192 26.1088 24.6659C26.2548 24.4126 26.3317 24.1253 26.3316 23.8329C26.3316 23.5405 26.2545 23.2532 26.1083 23Z" stroke="#DC2626" stroke-width="1.66667" stroke-linecap="round" stroke-linejoin="round"/>
<path d="M18 15.5V18.8333" stroke="#DC2626" stroke-width="1.66667" stroke-linecap="round" stroke-linejoin="round"/>
<path d="M18 22.1666H18.0083" stroke="#DC2626" stroke-width="1.66667" stroke-linecap="round" stroke-linejoin="round"/>
</svg>
