<svg width="16" height="16" viewBox="0 0 16 16" fill="none" xmlns="http://www.w3.org/2000/svg">
<path d="M1.33334 2H5.33334C6.04058 2 6.71886 2.28095 7.21895 2.78105C7.71905 3.28115 8 3.95942 8 4.66667V14C8 13.4696 7.78929 12.9609 7.41422 12.5858C7.03914 12.2107 6.53044 12 6 12H1.33334V2Z" stroke="#9CA3AF" stroke-width="1.33333" stroke-linecap="round" stroke-linejoin="round"/>
<path d="M14.6667 2H10.6667C9.95942 2 9.28115 2.28095 8.78105 2.78105C8.28095 3.28115 8 3.95942 8 4.66667V14C8 13.4696 8.21071 12.9609 8.58579 12.5858C8.96086 12.2107 9.46957 12 10 12H14.6667V2Z" stroke="#9CA3AF" stroke-width="1.33333" stroke-linecap="round" stroke-linejoin="round"/>
</svg>
