<svg width="20" height="20" viewBox="0 0 20 20" fill="none" xmlns="http://www.w3.org/2000/svg">
<path d="M5 6.66667C5 5.34059 5.52678 4.06882 6.46447 3.13114C7.40215 2.19346 8.67392 1.66667 10 1.66667C11.3261 1.66667 12.5979 2.19346 13.5355 3.13114C14.4732 4.06882 15 5.34059 15 6.66667C15 12.5 17.5 14.1667 17.5 14.1667H2.5C2.5 14.1667 5 12.5 5 6.66667Z" stroke="#4B5563" stroke-width="1.66667" stroke-linecap="round" stroke-linejoin="round"/>
<path d="M8.58334 17.5C8.72282 17.7537 8.92788 17.9653 9.17708 18.1127C9.42628 18.26 9.71049 18.3378 10 18.3378C10.2895 18.3378 10.5737 18.26 10.8229 18.1127C11.0721 17.9653 11.2772 17.7537 11.4167 17.5" stroke="#4B5563" stroke-width="1.66667" stroke-linecap="round" stroke-linejoin="round"/>
</svg>
