<svg width="32" height="32" viewBox="0 0 32 32" fill="none" xmlns="http://www.w3.org/2000/svg">
<path d="M20 5H6C4.34315 5 3 6.34315 3 8V28C3 29.6569 4.34315 31 6 31H20C21.6569 31 23 29.6569 23 28V8C23 6.34315 21.6569 5 20 5Z" fill="#2686EC"/>
<path d="M29.0036 4V24C29.0012 24.7949 28.6844 25.5566 28.1223 26.1187C27.5602 26.6808 26.7985 26.9976 26.0036 27H25.0036V8C25.0036 6.67392 24.4768 5.40215 23.5391 4.46447C22.6014 3.52678 21.3297 3 20.0036 3H9.18359C9.38991 2.41645 9.77166 1.911 10.2765 1.55294C10.7814 1.19488 11.3846 1.00174 12.0036 1H26.0036C26.7985 1.00237 27.5602 1.31921 28.1223 1.8813C28.6844 2.4434 29.0012 3.20508 29.0036 4Z" fill="#2686EC"/>
</svg>
