<svg width="70" height="70" viewBox="0 0 70 70" fill="none" xmlns="http://www.w3.org/2000/svg">
<path d="M23.2507 64.1668L5.83398 59.3543V39.0895C5.83398 35.4446 9.13948 32.6924 12.7241 33.3527L23.2507 35.2918L42.2507 32.0835L56.8496 35.7813C59.4379 36.4368 61.2507 38.766 61.2507 41.436V64.1668L42.2507 59.3543L23.2507 64.1668Z" fill="#A943F9"/>
<g style="mix-blend-mode:multiply">
<path fill-rule="evenodd" clip-rule="evenodd" d="M32.6301 7.20801H34.3725C43.2572 7.20801 50.4596 14.4105 50.4596 23.2951C50.4596 27.8014 48.6695 32.1231 45.4831 35.3095L33.5013 47.2913L21.5195 35.3095C18.3331 32.1231 16.543 27.8014 16.543 23.2951C16.543 14.4105 23.7454 7.20801 32.6301 7.20801ZM33.5 31.8745C38.6086 31.8745 42.75 27.7331 42.75 22.6245C42.75 17.5159 38.6086 13.3745 33.5 13.3745C28.3914 13.3745 24.25 17.5159 24.25 22.6245C24.25 27.7331 28.3914 31.8745 33.5 31.8745Z" fill="#FF4BAD"/>
</g>
</svg>
